<svg xmlns="http://www.w3.org/2000/svg" viewBox="0 0 16 16">
  <defs>
    <style>
      .cls-1 {
        fill: #fff;
      }
    </style>
  </defs>
  <g id="nose">
    <path class="cls-1" d="M12.39,7.07h0A5.23,5.23,0,0,0,8,4.83a5.57,5.57,0,0,0-2.49.58,4.5,4.5,0,0,0-2.61,4c0,2.53,2.28,3.73,5.1,3.73s5.1-1.2,5.1-3.73A4.21,4.21,0,0,0,12.39,7.07Zm-5.88,2c-.28.61-.81,1-1.18.8s-.45-.81-.17-1.43.81-1,1.19-.8S6.8,8.5,6.51,9.12Zm4.16.8c-.37.17-.9-.19-1.18-.8s-.21-1.26.16-1.43.91.19,1.19.8S11.05,9.74,10.67,9.92Z"/>
  </g>
</svg>
