<svg xmlns="http://www.w3.org/2000/svg" viewBox="0 0 16 16">
  <defs>
    <style>
      .cls-1 {
        fill: #fff;
      }
    </style>
  </defs>
  <g id="nose">
    <path class="cls-1" d="M13.53,11.56a1.82,1.82,0,0,1-.32.73c-.58.78-1.67.82-2.29,1a.65.65,0,0,0-.43.32,1.91,1.91,0,0,1-.33.54,2.11,2.11,0,0,1-1.67.74,2,2,0,0,1-1.56-.71,3.47,3.47,0,0,1-.44-.57.75.75,0,0,0-.33-.23,9.06,9.06,0,0,1-1.92-.65,1.8,1.8,0,0,1-.8-1.2c-.43-1.91,2.1-9.3,5-9.41h.07C11.43,2.26,14,9.65,13.53,11.56Z"/>
  </g>
</svg>
