<svg xmlns="http://www.w3.org/2000/svg" viewBox="0 0 27.14 12.63">
  <defs>
    <style>
      .cls-1 {
        fill: #f48fb1;
      }

      .cls-2 {
        fill: #881a51;
      }

      .cls-3 {
        fill: #fff;
      }
    </style>
  </defs>
  <g id="front-hair">
    <g>
      <path class="cls-1" d="M20.7,7.45A17.5,17.5,0,0,0,7.05,6.91a7.37,7.37,0,0,0,13.65.54Z"/>
      <path class="cls-2" d="M20.7,7.45a11.18,11.18,0,0,0,.62-2.9c0-4-3.29-2.2-7.34-2.2S6.65.55,6.65,4.55a7.09,7.09,0,0,0,.4,2.36A17.5,17.5,0,0,1,20.7,7.45Z"/>
      <path class="cls-3" d="M8,2.07c0,.89.19,2.43.66,2.85s.74.21.74-.13S9.61,3,9.8,2A5,5,0,0,0,8,2.07Z"/>
      <path class="cls-3" d="M20,2.07C20,3,19.81,4.5,19.34,4.92s-.74.21-.74-.13S18.37,3,18.19,2A5,5,0,0,1,20,2.07Z"/>
    </g>
  </g>
</svg>
