<svg xmlns="http://www.w3.org/2000/svg" viewBox="0 0 27.14 12.63">
  <defs>
    <style>
      .cls-1 {
        fill: #ff7fce;
      }

      .cls-2 {
        fill: #fff;
      }
    </style>
  </defs>
  <g id="front-hair">
    <g>
      <path class="cls-1" d="M13.78,11.4c4.7,0,4.7-2.54,4.7-2.54V2.29a.94.94,0,0,0-.83-1.06H10.36a.94.94,0,0,0-.83,1.06V8.86s0,2.54,4.71,2.54Z"/>
      <path class="cls-2" d="M12,1.23h4s.09,1.5-1.18,1.43c-1.07-.06-.83-1-.83-1s-.07,1-1,1c-1.09,0-1-1.43-1-1.43"/>
      <path class="cls-2" d="M14.94,10a1,1,0,0,0-1,.85c0-.24,0-.8-.85-.85S12,10.71,12,11.14a8.62,8.62,0,0,0,2,.26A9.21,9.21,0,0,0,16,11.17c0-.42-.22-1.16-1-1.16"/>
    </g>
  </g>
</svg>
