<svg xmlns="http://www.w3.org/2000/svg" viewBox="0 0 27.14 12.63">
  <defs>
    <style>
      .cls-1 {
        fill: #ff7fce;
      }

      .cls-2 {
        fill: #fff;
      }
    </style>
  </defs>
  <g id="front-hair">
    <g>
      <path class="cls-1" d="M22.76,5.32c0,2.25-1.5,4.08-3.36,4.08H8.57C6.71,9.4,5.2,7.57,5.2,5.32h0c0-2.26,1.51-4.08,3.37-4.08H19.4c1.86,0,3.36,1.82,3.36,4.08Z"/>
      <path class="cls-2" d="M8.57,1.24a2.77,2.77,0,0,0-.42,0A1.64,1.64,0,0,0,8,1.94,2.08,2.08,0,0,0,9.88,4.19a1.77,1.77,0,0,0,1.47-.88,1.77,1.77,0,0,0,1.47.88A1.65,1.65,0,0,0,14,3.64a1.69,1.69,0,0,0,1.21.55,1.77,1.77,0,0,0,1.47-.88,1.77,1.77,0,0,0,1.47.88A2.08,2.08,0,0,0,20,1.94a1.75,1.75,0,0,0-.12-.65,3,3,0,0,0-.52-.05Z"/>
      <path class="cls-2" d="M19.49,9.4a3,3,0,0,0,.43,0A1.79,1.79,0,0,0,20,8.69a2.08,2.08,0,0,0-1.86-2.25,1.76,1.76,0,0,0-1.47.89,1.76,1.76,0,0,0-1.47-.89A1.66,1.66,0,0,0,14,7a1.63,1.63,0,0,0-1.21-.56,1.76,1.76,0,0,0-1.47.89,1.76,1.76,0,0,0-1.47-.89A2.08,2.08,0,0,0,8,8.69a1.69,1.69,0,0,0,.11.65,3.07,3.07,0,0,0,.52.06Z"/>
    </g>
  </g>
</svg>
