<svg xmlns="http://www.w3.org/2000/svg" viewBox="0 0 27.14 12.63">
  <defs>
    <style>
      .cls-1 {
        fill: #fff;
      }

      .cls-2 {
        fill: #ff7fce;
      }
    </style>
  </defs>
  <g id="front-hair">
    <g>
      <path class="cls-1" d="M6.44,6.87s-1.45-3,.14-3.7S9.22,5.41,9.22,5.41Z"/>
      <path class="cls-1" d="M21.71,6.87s1.45-3-.13-3.7-2.65,2.24-2.65,2.24Z"/>
      <path class="cls-2" d="M22.11,8.19a18.61,18.61,0,0,0-8.78-2.34h0A13.73,13.73,0,0,0,6.06,7.79h0L6,7.86H6a.74.74,0,0,1-1-.16h0a.74.74,0,0,1,.16-1h0a14.76,14.76,0,0,1,8.25-2.3h0a20.16,20.16,0,0,1,9.46,2.51h0a.72.72,0,0,1,.31,1h0a.72.72,0,0,1-.65.4h0a.77.77,0,0,1-.34-.08Z"/>
    </g>
  </g>
</svg>
