<svg xmlns="http://www.w3.org/2000/svg" viewBox="0 0 150 70">
  <defs>
    <style>
      .cls-1 {
        fill: #fff;
      }
    </style>
  </defs>
  <g id="front-hair">
    <path class="cls-1" d="M90.88,22.31c1.43-.7,2.78-1.91,2.31-2.44C92.42,19,89.79,22,89.79,22s2.89-5.14,1.35-5c-1.1.11-2,3-2.43,4.6-9.07-12.25-38.36,3.89-38.36,3.89s2.41-6.87-2.06-6.76c-3.06.07-3.29,3.36-3.12,5.43-.33-1.64-1.1-3.88-2.85-3.6-2.72.42-2,6.43-2,6.43s-1-5.47-3.38-4.61c-2.1.74-4.28,9.34,3.49,17.47h0s-3.92,5.64-.95,15.31c0,0,1.25-8.35,4.6-12.1h0l.58.43C57.35,52.48,80.27,32.7,87.3,33s10.26,19.85,14.48,20.86C105.84,54.85,107.43,27.47,90.88,22.31Z"/>
  </g>
</svg>
