<svg xmlns="http://www.w3.org/2000/svg" viewBox="0 0 150 70">
  <defs>
    <style>
      .cls-1 {
        fill: #fff;
      }
    </style>
  </defs>
  <g id="front-hair">
    <g>
      <path class="cls-1" d="M79.36,32.85c-.66-1,1.48-13.35,2.19-14.69,1.6-3,6-4.34,9.75-3.82s7.07,2.5,10,4.63c3.23,2.32,6.34,5.05,7.5,8.54,1.89,5.68,1.47,23.56-5.9,37.63-.58-5.84-4.23-12.27-6.46-17.81C90.15,31.65,81.12,35.37,79.36,32.85Z"/>
      <path class="cls-1" d="M85.67,25.1c1.54-4,2.43-6.2.36-9.8C84.47,12.59,74.23,6.45,64.51,7c-10.94.62-16.85,6.84-23.12,14.59-11.09,13.73-8.29,21-5.72,28.33,1.94,5.47,1.7,10.85,4.11,16.17,2.76-3.14,2.44-7.61,4.85-11.36,5-7.85,17-8,31.46-13C80.77,40.07,84.08,29.18,85.67,25.1Z"/>
    </g>
  </g>
</svg>
