<svg xmlns="http://www.w3.org/2000/svg" viewBox="0 0 177.58 121.56">
  <defs>
    <style>
      .cls-1 {
        fill: #fff;
      }
    </style>
  </defs>
  <g id="head">
    <path class="cls-1" d="M54.63,64c-.35,4-1.76,7.62-2.74,11.49C49.51,84.9,37.87,91,38,100.78c0,1.65.55,3.5,2.05,4.24.93.46,8.65.82,9.8.5C53.7,104.42,58.4,94.69,60,89c-1.05,4.82-1.89,8.61-4.07,12.77a2.87,2.87,0,0,0,1.83,4.14,125.76,125.76,0,0,0,27,3.24c6.09.06,22-3.34,29.08-4.91a2.58,2.58,0,0,0,1.71-3.68,21,21,0,0,1-2.15-11.73c.47,5.83,4.52,11.21,6.46,13.48a4.56,4.56,0,0,0,2.45,1.48c3.86.86,14.4,3,15.85.75,5.75-8.79-9.33-13.6-8.55-21.34.26-2.54,2.42-4.73,2.2-7.27-.25-2.79-3.13-4.5-5.18-6.46-2.8-2.7-4.68-6.85-3.47-10.49,1.95-5.83-4.54-8.2-5.23-9.72-8.71-19-47.36-13.22-54.11-1.34C60.59,53.55,55.28,56.64,54.63,64Z"/>
  </g>
</svg>
