<svg xmlns="http://www.w3.org/2000/svg" viewBox="0 0 150 70">
  <defs>
    <style>
      .cls-1 {
        fill: #fff;
      }
    </style>
  </defs>
  <g id="front-hair">
    <g>
      <path class="cls-1" d="M39.55,58.15c0,.35,4.38-17.44,10-19.9-2.57,4.29-3.47,4.9-3.47,4.9s8.77-.92,12.11-6.29c.94,3.07-1.62,5.52-1.62,5.52s15.87,7.33,26-2.3a5.1,5.1,0,0,1,0,5.37s9.8,0,11.75-5.67a50.66,50.66,0,0,1,8.39,18s4-34.53-29.83-34C38.25,24.39,40.06,52.59,39.55,58.15Z"/>
      <path class="cls-1" d="M75.79,24.5s-1.84-5.91.51-6.43.47,6.43.47,6.43,1.65-6,3.17-4.43S78.92,26.72,75.79,24.5Z"/>
    </g>
  </g>
</svg>
