<svg xmlns="http://www.w3.org/2000/svg" viewBox="0 0 150 70">
  <defs>
    <style>
      .cls-1 {
        fill: #fff;
      }
    </style>
  </defs>
  <g id="front-hair">
    <g>
      <path class="cls-1" d="M68.87,33.79c22,.57,30.64,17.68,34,24.33.92-5.42,4.79-10.92.57-20.22C99.75,29.67,91.42,21.69,66,22.5,47.17,23.1,38.44,30.58,36.72,39c-1.53,7.47-2.62,17.7,2.61,24.88.76-6,1.76-10.36,4.9-16C48.17,40.77,57.57,33.49,68.87,33.79Z"/>
      <path class="cls-1" d="M53.94,12.28a10.46,10.46,0,0,1,3.32-1.69c8-3,11-3.3,19.88-2.23,5.65.69,8.26,1.49,9.74,4.78,1.8,4,1,11-4.88,11.13a13.21,13.21,0,0,1-3-.42c-10.24-2.11-16.54.95-21.94,0C50.6,22.79,50.85,15.13,53.94,12.28Z"/>
    </g>
  </g>
</svg>
