<svg xmlns="http://www.w3.org/2000/svg" viewBox="0 0 150 70">
  <defs>
    <style>
      .cls-1 {
        fill: #fff;
      }
    </style>
  </defs>
  <g id="front-hair">
    <g>
      <path class="cls-1" d="M38.79,63.53C39.22,63,28,20.11,72.65,20c42.46-.11,30.76,38.32,30.76,38.32S85.12,48.48,82.73,32.88c.13.82-1.47,2.62-2,3.29a26.9,26.9,0,0,1-2.63,3A55,55,0,0,1,64.31,49.37a51.29,51.29,0,0,1-8.62,3.53c-3.22,1-6.57,1.53-9.65,2.84A13.38,13.38,0,0,0,38.79,63.53Z"/>
      <path class="cls-1" d="M82.09,24.53s-6.64-13.72,8-17.42,23.48,9.26,6,21.78C91,24.2,82.09,24.53,82.09,24.53Z"/>
    </g>
  </g>
</svg>
