<svg xmlns="http://www.w3.org/2000/svg" viewBox="0 0 177.58 121.56">
  <defs>
    <style>
      .cls-1 {
        fill: #fff;
      }
    </style>
  </defs>
  <g id="head">
    <path class="cls-1" d="M60.07,39C58,42.87,58.15,47.34,57.3,51.55,54.76,64.13,43.6,73.63,35,83.85c-1.72,2-3.38,4.2-4,6.68a6.43,6.43,0,0,0,2.33,6.92c-.23-2.18,1.05-4.33,2.84-5.84a24.82,24.82,0,0,1,6.24-3.49C40,90.47,38,93.38,38,96.56c0,5.07,4.8,9,9.47,11.91C57.89,115,70.34,120,83,118.85c8-.75,15.38-3.91,22.23-7.59,7.61-4.1,10-12.16,11.93-19.49,3.32-12.7,3-25.78,2.71-38.73-.08-4.48-2.68-7.53-5.11-11.56-3.53-5.88-10.85-9.35-18.24-10.42S81.61,31,74.23,32.12C69.15,32.89,62.29,34.87,60.07,39Z"/>
  </g>
</svg>
