<svg xmlns="http://www.w3.org/2000/svg" viewBox="0 0 150 70">
  <defs>
    <style>
      .cls-1 {
        fill: #fff;
      }
    </style>
  </defs>
  <g id="front-hair">
    <path class="cls-1" d="M49.51,15.34C38.69,22.44,29.27,33,32,43.65L39.6,66.19c-1.87-10,7.19-23,12.16-28.51.31-.33.94,0,.72.36-1,1.78-2.27,2.43-3,7.76-.13,1,1,1.66,2.08,1.31A45.8,45.8,0,0,1,80,47a5.15,5.15,0,0,0,2.81.15c2.08-.45,5.33-1.11,6.41-1.37,6.57-1.57,13.59,15.44,13.59,15.44,6.73-9.26,8.35-20.8,8.35-20.8a31.57,31.57,0,0,0-.56-4.12C104.23,10.74,73.64,9.92,71.57,10c-6.81.29-11.95,3.54-12.53,5.61C57.07,15.55,52.48,13.38,49.51,15.34Z"/>
  </g>
</svg>
