<svg xmlns="http://www.w3.org/2000/svg" viewBox="0 0 177.58 121.56">
  <defs>
    <style>
      .cls-1 {
        fill: #fff;
      }
    </style>
  </defs>
  <g id="head">
    <path class="cls-1" d="M118.74,42.19l4.41,39.48s9-2.72,14.36,4.43-2.18,9.61-2.19,9.61c.86-.27,3.67,2.8,4.08,3.26,2.17,2.45,4.75,6.92,1.76,9.7-3.27,3-9,.33-11.08-2.81a10.71,10.71,0,0,1-7.05,12c-4.17,1.3-8.09.23-12.11-1-5.79-1.73-11.39-4-17.17-5.76a1.17,1.17,0,0,0-1.41.27c-3.72,3-6.84,5.52-11.84,5.6-5.71.09-10.88-2.32-16.66-1.74-6.13.61-14.85,2.38-17.12-5.46-1.69-5.83.39-11.84,6.58-14.4a15.23,15.23,0,0,1-8.57-.66,8.33,8.33,0,0,1-5.2-6c-1-6.44,7.06-7.85,12.3-7.45L62.19,41.54Z"/>
  </g>
</svg>
