<svg xmlns="http://www.w3.org/2000/svg" viewBox="0 0 150 70">
  <defs>
    <style>
      .cls-1 {
        fill: #fff;
      }
    </style>
  </defs>
  <g id="front-hair">
    <g>
      <path class="cls-1" d="M72.16,20.58s-2.29-7.11,0-7.46,1.11,6.63,1.11,6.63,1.06-4.68,3.29-3.42S73.88,21.29,72.16,20.58Z"/>
      <path class="cls-1" d="M100.59,39.56a45.07,45.07,0,0,0-2.71-5.9,25,25,0,0,0-8.65-9.32,29.13,29.13,0,0,0-10.57-4.08A39.05,39.05,0,0,0,60.09,22c-4.92,1.59-11.07,5.76-14,9.55-2,2.67-6.08,8-7,21,0,0,14.83,1.59,30-13.14-.6,7.55-4.35,10.48-4.35,10.48s12.83-.36,15.81-11.31c9.78,6.35,5.58,12.62,5.58,12.62s6.48-1.2,10.8-5.34c-.24.23,0,1.84.08,2.17a18.4,18.4,0,0,0,.31,2.23,11.1,11.1,0,0,0,1.56,3.94c.6.91,2,2.55,3.16,2.69s1.42-3.59,1.4-4.54A38.15,38.15,0,0,0,100.59,39.56Z"/>
    </g>
  </g>
</svg>
