<svg xmlns="http://www.w3.org/2000/svg" viewBox="0 0 108.77 54.67">
  <defs>
    <style>
      .cls-1 {
        fill: #fff;
      }
    </style>
  </defs>
  <g id="head">
    <path class="cls-1" d="M101.72,19.52A31.62,31.62,0,0,0,96,19.9a86.52,86.52,0,0,0-10.21,2.24A41.63,41.63,0,0,1,86.66,32a28.45,28.45,0,0,1-1.09,7.3.9.9,0,0,0,.73-.16l.29-.23a88.09,88.09,0,0,0,16.32-17.61C103.48,20.42,102.75,19.57,101.72,19.52Z"/>
    <path class="cls-1" d="M22.77,32a42.48,42.48,0,0,1,.81-9.74A87.76,87.76,0,0,0,13,19.9a31.62,31.62,0,0,0-5.68-.38c-1,.05-1.76.9-1.19,1.76A88.09,88.09,0,0,0,22.47,38.89l.29.23a.92.92,0,0,0,1.07,0A29,29,0,0,1,22.77,32Z"/>
  </g>
</svg>
