<svg xmlns="http://www.w3.org/2000/svg" viewBox="0 0 108.77 54.67">
  <defs>
    <style>
      .cls-1 {
        fill: #fff;
      }
    </style>
  </defs>
  <g id="head">
    <path class="cls-1" d="M106.89,21.7c-.54-1.1-2-1.32-3.22-1.38a30.5,30.5,0,0,0-8,.34,11.65,11.65,0,0,0-6.82,3.91,27.53,27.53,0,0,1-2.09,2.8l-.2.18c.1,1.42.13,2.89.09,4.43a30.18,30.18,0,0,1-.29,3.55,1.86,1.86,0,0,0,.34-.06,5.91,5.91,0,0,1,1.93-.23c1.08,0,2.15.25,3.22.33a12.83,12.83,0,0,0,8.94-3.19,22.94,22.94,0,0,0,5.69-7.79,6.83,6.83,0,0,0,.46-1.16A2.4,2.4,0,0,0,106.89,21.7Z"/>
    <path class="cls-1" d="M22.77,32c0-1.36,0-2.66.06-3.93a5.88,5.88,0,0,1-.83-.68,29.19,29.19,0,0,1-2.1-2.8,11.62,11.62,0,0,0-6.81-3.91,30.52,30.52,0,0,0-8-.34c-1.23.06-2.68.28-3.22,1.38a2.45,2.45,0,0,0-.07,1.73,9,9,0,0,0,.46,1.16A23.1,23.1,0,0,0,8,32.38a12.8,12.8,0,0,0,8.93,3.19c1.08-.08,2.15-.32,3.23-.33a5.94,5.94,0,0,1,1.93.23,1.52,1.52,0,0,0,1,0A33.9,33.9,0,0,1,22.77,32Z"/>
  </g>
</svg>
