<svg xmlns="http://www.w3.org/2000/svg" viewBox="0 0 108.77 54.67">
  <defs>
    <style>
      .cls-1 {
        fill: #fff;
      }
    </style>
  </defs>
  <g id="head">
    <path class="cls-1" d="M100.89,21.14a5.33,5.33,0,0,0-3.81-1.91,8.1,8.1,0,0,0-4.28,1.21,21.37,21.37,0,0,0-4.15,3.18c-.78.73-1.51,1.5-2.22,2.29A44.18,44.18,0,0,1,86.66,32a32.16,32.16,0,0,1-.25,3.21c.52.22,1,.43,1.59.61a10.22,10.22,0,0,0,4.74.64,3.86,3.86,0,0,0,1.94-.72c.43-.38.27-.86-.08-1.24a5.59,5.59,0,0,0-1.75-1.21,16.84,16.84,0,0,0,2.84.06c1.46-.09,3.42-.4,4.18-1.84a2.49,2.49,0,0,0,.1-2.13,2.26,2.26,0,0,0-1.41-1.15,7.83,7.83,0,0,0-3.79,0A28.86,28.86,0,0,0,98,26.54C99.73,25.52,102.73,23.38,100.89,21.14Z"/>
    <path class="cls-1" d="M22.77,32a46.08,46.08,0,0,1,.15-5.05,44.25,44.25,0,0,0-3.11-3.31,21.67,21.67,0,0,0-4.15-3.18,8.13,8.13,0,0,0-4.28-1.21,5.37,5.37,0,0,0-3.82,1.91c-1.84,2.24,1.17,4.38,2.89,5.4a28.71,28.71,0,0,0,3.23,1.63,7.79,7.79,0,0,0-3.78,0,2.25,2.25,0,0,0-1.42,1.15,2.56,2.56,0,0,0,.1,2.13c.76,1.44,2.72,1.75,4.18,1.84a16.84,16.84,0,0,0,2.84-.06,5.59,5.59,0,0,0-1.75,1.21c-.34.38-.51.86-.07,1.24a3.86,3.86,0,0,0,1.94.72,10.26,10.26,0,0,0,4.74-.64,22,22,0,0,0,2.51-1C22.87,33.87,22.8,33,22.77,32Z"/>
  </g>
</svg>
