<svg xmlns="http://www.w3.org/2000/svg" viewBox="0 0 109.38 54.67">
  <defs>
    <style>
      .cls-1 {
        fill: #fff;
      }
    </style>
  </defs>
  <g id="head">
    <path class="cls-1" d="M98.36,23.19C96.71,20.94,93,20.42,90.44,20c-1.78-.33-3.57-.56-5.38-.72A33.21,33.21,0,0,1,86.31,25c1.49.11,3,.22,4.44.44,1,.14,1.74.91,1,1.87-.87,1.23-3,2-4.32,2.54-.27.13-.54.23-.81.35,0,.58,0,1.17,0,1.78a30.57,30.57,0,0,1-.42,4.34,34.37,34.37,0,0,0,9.46-5.79C97.87,28.77,100.52,26.12,98.36,23.19Z"/>
    <path class="cls-1" d="M22.77,32c0-.5,0-1,0-1.48-.51-.21-1-.42-1.53-.65-1.3-.59-3.45-1.31-4.32-2.54-.69-1,.09-1.73,1-1.87,1.7-.25,3.43-.36,5.16-.49a33.23,33.23,0,0,1,1.26-5.79,57,57,0,0,0-6.11.79c-2.54.47-6.27,1-7.92,3.24-2.16,2.93.48,5.58,2.66,7.34,3,2.4,6.43,4.85,10.13,6h.08A32.41,32.41,0,0,1,22.77,32Z"/>
  </g>
</svg>
