<svg xmlns="http://www.w3.org/2000/svg" viewBox="0 0 109.26 54.67">
  <defs>
    <style>
      .cls-1 {
        fill: #fff;
      }
    </style>
  </defs>
  <g id="head">
    <path class="cls-1" d="M95.58,20.76c-2.82-2.27-6.76-2.41-10.28-.73a39.73,39.73,0,0,1,1.36,12,27.05,27.05,0,0,1-1.6,8.82A12.14,12.14,0,0,0,95.83,36C99.9,31,99.78,24.15,95.58,20.76Z"/>
    <path class="cls-1" d="M22.77,32a39.35,39.35,0,0,1,1.45-12.22,9.32,9.32,0,0,0-9,1.26C11,24.41,10.91,31.25,15,36.29a12.44,12.44,0,0,0,9.52,4.86A26.88,26.88,0,0,1,22.77,32Z"/>
  </g>
</svg>
