<svg xmlns="http://www.w3.org/2000/svg" viewBox="0 0 62.38 40.87">
  <defs>
    <style>
      .cls-1 {
        fill: #fff;
      }
    </style>
  </defs>
  <g id="eye">
    <path class="cls-1" d="M23.2,36.77a6.07,6.07,0,0,1-1.77,1,7.56,7.56,0,0,1-2.67.35,8.6,8.6,0,0,1-1.34-.16,9.91,9.91,0,0,1-2.54-.87,10.26,10.26,0,0,1-4-3.6,9.09,9.09,0,0,1-1.44-5.32,9.76,9.76,0,0,1,.74-3.2c1.7-4.09,8.51-6,12.61-3.74,3.77,2,5.57,8.69,3.25,12.35A13,13,0,0,1,23.2,36.77Z"/>
    <path class="cls-1" d="M37.48,33.55C35.16,29.89,37,23.24,40.73,21.2c4.1-2.23,10.91-.35,12.61,3.74a9.76,9.76,0,0,1,.74,3.2,9.09,9.09,0,0,1-1.44,5.32,10.31,10.31,0,0,1-4,3.6,10.12,10.12,0,0,1-2.55.87,8.6,8.6,0,0,1-1.34.16,7.56,7.56,0,0,1-2.67-.35,6.07,6.07,0,0,1-1.77-1A13,13,0,0,1,37.48,33.55Z"/>
  </g>
</svg>
