<svg xmlns="http://www.w3.org/2000/svg" viewBox="0 0 62.38 40.87">
  <defs>
    <style>
      .cls-1 {
        fill: #fff;
      }
    </style>
  </defs>
  <g id="eye-front">
    <g>
      <ellipse class="cls-1" cx="18.62" cy="33.72" rx="3.21" ry="3.66"/>
      <ellipse class="cls-1" cx="43.77" cy="33.72" rx="3.21" ry="3.66"/>
      <path class="cls-1" d="M41.15,26.79A4.19,4.19,0,0,1,45,24.44a4.59,4.59,0,0,1,2.27.73,6.4,6.4,0,0,1,.91.72,8.77,8.77,0,0,1,.71.9c-.36-.15-.68-.34-1-.5s-.65-.31-1-.43a5.94,5.94,0,0,0-2-.42,4.7,4.7,0,0,0-1.94.33A9,9,0,0,0,41.15,26.79Z"/>
      <path class="cls-1" d="M13.48,26.79a4.19,4.19,0,0,1,3.86-2.35,4.59,4.59,0,0,1,2.27.73,6.4,6.4,0,0,1,.91.72,8.77,8.77,0,0,1,.71.9c-.36-.15-.68-.34-1-.5s-.65-.31-1-.43a5.94,5.94,0,0,0-2-.42,4.7,4.7,0,0,0-1.94.33A9,9,0,0,0,13.48,26.79Z"/>
    </g>
  </g>
</svg>
