<svg xmlns="http://www.w3.org/2000/svg" viewBox="0 0 62.38 40.87">
  <defs>
    <style>
      .cls-1 {
        fill: #fff;
      }
    </style>
  </defs>
  <g id="eye-front">
    <path class="cls-1" d="M49.82,30.18H43.43a1.92,1.92,0,0,1-1.91-1.92h0a1.92,1.92,0,0,1,1.91-1.92h6.39a1.92,1.92,0,0,1,1.92,1.92h0A1.93,1.93,0,0,1,49.82,30.18Z"/>
    <path class="cls-1" d="M21.12,30.21H14.73a1.92,1.92,0,0,1-1.91-1.92h0a1.92,1.92,0,0,1,1.91-1.92h6.39A1.93,1.93,0,0,1,23,28.29h0A1.92,1.92,0,0,1,21.12,30.21Z"/>
  </g>
</svg>
